<?xml version="1.0" encoding="UTF-8"?>
<svg version="1.1" xmlns="http://www.w3.org/2000/svg" width="32" height="32">
<path d="M0 0 C0.66 0 1.32 0 2 0 C2.515625 1.11375 3.03125 2.2275 3.5625 3.375 C4.80532947 5.59594075 5.52870876 6.76485898 7.82421875 7.91015625 C9.95229588 8.52593403 9.95229588 8.52593403 13 9 C12.34 9.825 11.68 10.65 11 11.5 C8.38765874 15.34492481 8.68665866 18.45655064 9 23 C8.34 23.33 7.68 23.66 7 24 C6.4225 23.67 5.845 23.34 5.25 23 C1.36931651 21.27525178 -2.12227932 22.70742644 -6 24 C-7 21 -7 21 -6.8125 18.1875 C-7.05014307 14.14756784 -8.58357053 12.17156368 -11 9 C-9.741875 8.62875 -8.48375 8.2575 -7.1875 7.875 C-3.66547593 6.58463012 -3.11123386 6.17727896 -1 2.8125 C-0.505 1.4203125 -0.505 1.4203125 0 0 Z " fill="#42AF79" transform="translate(15,4)"/>
<path d="M0 0 C1.72046505 2.2939534 3.4094295 4.61414424 5 7 C8.55672179 8.2188121 8.55672179 8.2188121 12 9 C11.34 9.825 10.68 10.65 10 11.5 C7.38765874 15.34492481 7.68665866 18.45655064 8 23 C7.34 23.33 6.68 23.66 6 24 C4.02 23.01 2.04 22.02 0 21 C0 14.07 0 7.14 0 0 Z " fill="#4EBB8A" transform="translate(16,4)"/>
</svg>
